<svg width="20" height="12" viewBox="0 0 20 12" fill="none" xmlns="http://www.w3.org/2000/svg">
<path d="M19.2688 4.3567L16.0434 1.098C15.966 1.01989 15.8738 0.957886 15.7722 0.915575C15.6707 0.873263 15.5617 0.851479 15.4517 0.851479C15.3417 0.851479 15.2327 0.873263 15.1312 0.915575C15.0296 0.957886 14.9374 1.01989 14.86 1.098C14.7047 1.25416 14.6176 1.46539 14.6176 1.68557C14.6176 1.90575 14.7047 2.11698 14.86 2.27313L17.827 5.26513H0.833425C0.612387 5.26513 0.400402 5.35294 0.244105 5.50923C0.087807 5.66553 0 5.87752 0 6.09855H0C0 6.31959 0.087807 6.53158 0.244105 6.68787C0.400402 6.84417 0.612387 6.93198 0.833425 6.93198H17.877L14.86 9.94064C14.7819 10.0181 14.7198 10.1103 14.6775 10.2119C14.6352 10.3134 14.6134 10.4224 14.6134 10.5324C14.6134 10.6424 14.6352 10.7513 14.6775 10.8529C14.7198 10.9545 14.7819 11.0466 14.86 11.1241C14.9374 11.2022 15.0296 11.2642 15.1312 11.3065C15.2327 11.3488 15.3417 11.3706 15.4517 11.3706C15.5617 11.3706 15.6707 11.3488 15.7722 11.3065C15.8738 11.2642 15.966 11.2022 16.0434 11.1241L19.2688 7.89042C19.737 7.42161 20 6.78613 20 6.12356C20 5.46098 19.737 4.8255 19.2688 4.3567Z" fill="white"/>
</svg>
