<svg width="24" height="25" viewBox="0 0 24 25" fill="none" xmlns="http://www.w3.org/2000/svg">
<path d="M7.5 2.5C8.03043 2.5 8.53914 2.71071 8.91421 3.08579C9.28929 3.46086 9.5 3.96957 9.5 4.5C9.5 5.03043 9.28929 5.53914 8.91421 5.91421C8.53914 6.28929 8.03043 6.5 7.5 6.5C6.96957 6.5 6.46086 6.28929 6.08579 5.91421C5.71071 5.53914 5.5 5.03043 5.5 4.5C5.5 3.96957 5.71071 3.46086 6.08579 3.08579C6.46086 2.71071 6.96957 2.5 7.5 2.5ZM6 7.5H9C9.53043 7.5 10.0391 7.71071 10.4142 8.08579C10.7893 8.46086 11 8.96957 11 9.5V15H9.5V22.5H5.5V15H4V9.5C4 8.96957 4.21071 8.46086 4.58579 8.08579C4.96086 7.71071 5.46957 7.5 6 7.5ZM16.5 2.5C17.0304 2.5 17.5391 2.71071 17.9142 3.08579C18.2893 3.46086 18.5 3.96957 18.5 4.5C18.5 5.03043 18.2893 5.53914 17.9142 5.91421C17.5391 6.28929 17.0304 6.5 16.5 6.5C15.9696 6.5 15.4609 6.28929 15.0858 5.91421C14.7107 5.53914 14.5 5.03043 14.5 4.5C14.5 3.96957 14.7107 3.46086 15.0858 3.08579C15.4609 2.71071 15.9696 2.5 16.5 2.5ZM15 7.5H18C18.5304 7.5 19.0391 7.71071 19.4142 8.08579C19.7893 8.46086 20 8.96957 20 9.5V15H18.5V22.5H14.5V15H13V9.5C13 8.96957 13.2107 8.46086 13.5858 8.08579C13.9609 7.71071 14.4696 7.5 15 7.5Z" fill="black"/>
</svg>
