<svg width="390" height="298" viewBox="0 0 390 298" fill="none" xmlns="http://www.w3.org/2000/svg">
<path d="M376.598 0.148438H13.4024C6.00082 0.148438 0 6.14996 0 13.5542V283.668C0 291.072 6.00082 297.073 13.4024 297.073H376.597C383.999 297.073 389.999 291.071 389.999 283.668V13.5542C390 6.14996 383.999 0.148438 376.598 0.148438Z" fill="#F87171"/>
<path d="M390 283.665V13.5564C390 6.14685 383.997 0.149902 376.597 0.149902H355.017C362.417 0.149902 368.421 6.14685 368.421 13.5564V283.664C368.421 291.073 362.417 297.07 355.017 297.07H376.597C383.997 297.07 390 291.074 390 283.665Z" fill="#991B1B"/>
<path d="M390 58.2017V13.5564C390 6.14685 383.997 0.149902 376.597 0.149902H13.4032C6.00311 0.150664 0 6.14762 0 13.5564V58.2017H390Z" fill="#FFE3E3"/>
<path d="M390 58.2017V13.5564C390 6.14685 383.997 0.149902 376.597 0.149902H355.017C362.417 0.149902 368.421 6.14685 368.421 13.5564V58.2017H390Z" fill="#FFADAD"/>
<path d="M75.4156 35.0073H75.3417C72.0914 35.0073 69.4567 32.3719 69.4567 29.1209C69.4567 25.8698 72.0914 23.2344 75.3417 23.2344C78.592 23.2344 81.2641 25.8698 81.2641 29.1209C81.2641 32.3719 78.6658 35.0073 75.4156 35.0073Z" fill="#54DDAC"/>
<path d="M56.1326 35.0638C52.9106 35.0638 50.2826 32.4688 50.2491 29.2383C50.2148 25.9872 52.8222 23.3244 56.0725 23.2901C59.2877 23.2467 62.0215 25.8638 62.0558 29.1148C62.09 32.3667 59.5192 35.0288 56.269 35.063L56.1951 35.0638C56.1745 35.0638 56.1532 35.0638 56.1326 35.0638Z" fill="#FDC142"/>
<path d="M36.9244 35.1194C33.7023 35.1194 31.0736 32.5244 31.0408 29.2939C31.0073 26.0421 33.6147 23.3792 36.8649 23.3457C36.8855 23.3457 36.9068 23.3457 36.9266 23.3457C40.1495 23.3457 42.814 25.9408 42.8475 29.1712C42.881 32.4223 40.311 35.0851 37.0599 35.1187L36.9861 35.1194C36.9663 35.1194 36.9449 35.1194 36.9244 35.1194Z" fill="#FC3E81"/>
<path d="M131.659 35.1191H111.235C107.985 35.1191 105.35 32.4837 105.35 29.2327C105.35 25.9816 107.985 23.3462 111.235 23.3462H131.659C134.909 23.3462 137.544 25.9816 137.544 29.2327C137.544 32.4837 134.909 35.1191 131.659 35.1191Z" fill="white"/>
<path d="M131.298 202.789H119.116V224.202H89.6077V202.789H45.496V180.847L91.4993 113.582H119.116V180.468H131.298V202.789ZM89.6077 180.468V167.606C89.6077 166.445 89.6329 164.983 89.6833 163.217C89.7338 161.452 89.7842 159.686 89.8347 157.921C89.9355 156.105 90.0112 154.591 90.0616 153.381C90.1625 152.12 90.2382 151.439 90.2886 151.338H89.4563C88.4979 153.608 87.6152 155.499 86.8081 157.013C86.0011 158.476 84.9418 160.216 83.6303 162.233L71.3728 180.468H89.6077ZM218.853 169.043C218.853 177.921 218.147 185.866 216.735 192.877C215.323 199.838 213.053 205.765 209.925 210.658C206.848 215.551 202.762 219.284 197.668 221.856C192.573 224.429 186.318 225.715 178.903 225.715C169.672 225.715 162.106 223.47 156.204 218.981C150.303 214.441 145.939 207.959 143.115 199.535C140.34 191.061 138.953 180.897 138.953 169.043C138.953 157.088 140.214 146.874 142.736 138.4C145.309 129.875 149.521 123.343 155.372 118.803C161.223 114.263 169.067 111.993 178.903 111.993C188.134 111.993 195.675 114.263 201.527 118.803C207.428 123.292 211.792 129.799 214.616 138.324C217.441 146.798 218.853 157.038 218.853 169.043ZM168.689 169.043C168.689 176.256 168.941 182.309 169.445 187.202C170 192.095 171.009 195.777 172.472 198.249C173.985 200.67 176.129 201.881 178.903 201.881C181.678 201.881 183.796 200.67 185.259 198.249C186.722 195.777 187.731 192.12 188.286 187.278C188.84 182.385 189.118 176.307 189.118 169.043C189.118 161.729 188.84 155.626 188.286 150.733C187.731 145.84 186.722 142.157 185.259 139.686C183.796 137.164 181.678 135.903 178.903 135.903C176.129 135.903 173.985 137.164 172.472 139.686C171.009 142.157 170 145.84 169.445 150.733C168.941 155.626 168.689 161.729 168.689 169.043ZM305.35 137.567C305.35 142.813 304.215 147.353 301.945 151.187C299.725 154.97 296.749 158.072 293.016 160.493C289.334 162.914 285.299 164.73 280.91 165.941V166.395C289.738 167.505 296.547 170.203 301.339 174.491C306.182 178.728 308.603 184.756 308.603 192.574C308.603 198.627 306.989 204.176 303.761 209.22C300.532 214.214 295.513 218.224 288.704 221.251C281.894 224.227 273.142 225.715 262.448 225.715C255.286 225.715 249.182 225.185 244.138 224.126C239.094 223.067 234.201 221.604 229.459 219.738V194.92C234.251 197.392 239.169 199.233 244.214 200.443C249.308 201.604 253.949 202.184 258.136 202.184C265.399 202.184 270.343 201.15 272.966 199.081C275.639 197.013 276.976 194.239 276.976 190.759C276.976 188.236 276.345 186.093 275.084 184.327C273.823 182.562 271.478 181.2 268.048 180.241C264.668 179.283 259.8 178.804 253.445 178.804H246.635V156.332H253.596C259.245 156.332 263.71 155.827 266.988 154.818C270.317 153.81 272.713 152.448 274.176 150.733C275.639 148.967 276.371 146.949 276.371 144.68C276.371 141.754 275.236 139.585 272.966 138.173C270.696 136.76 267.694 136.054 263.962 136.054C260.633 136.054 257.505 136.508 254.58 137.416C251.654 138.324 249.107 139.333 246.938 140.442C244.768 141.552 243.129 142.46 242.019 143.166L229.611 123.191C234.201 120.064 239.447 117.416 245.349 115.247C251.301 113.078 259.069 111.993 268.653 111.993C280.053 111.993 289.006 114.263 295.513 118.803C302.071 123.343 305.35 129.597 305.35 137.567Z" fill="#991B1B"/>
</svg>
