<svg width="390" height="298" viewBox="0 0 390 298" fill="none" xmlns="http://www.w3.org/2000/svg">
<path d="M376.598 0.148438H13.4024C6.00082 0.148438 0 6.14996 0 13.5542V283.668C0 291.072 6.00082 297.073 13.4024 297.073H376.597C383.999 297.073 389.999 291.071 389.999 283.668V13.5542C390 6.14996 383.999 0.148438 376.598 0.148438Z" fill="#F87171"/>
<path d="M390 283.665V13.5564C390 6.14685 383.997 0.149902 376.597 0.149902H355.017C362.417 0.149902 368.421 6.14685 368.421 13.5564V283.664C368.421 291.073 362.417 297.07 355.017 297.07H376.597C383.997 297.07 390 291.074 390 283.665Z" fill="#991B1B"/>
<path d="M390 58.2017V13.5564C390 6.14685 383.997 0.149902 376.597 0.149902H13.4032C6.00311 0.150664 0 6.14762 0 13.5564V58.2017H390Z" fill="#FFE3E3"/>
<path d="M390 58.2017V13.5564C390 6.14685 383.997 0.149902 376.597 0.149902H355.017C362.417 0.149902 368.421 6.14685 368.421 13.5564V58.2017H390Z" fill="#FFADAD"/>
<path d="M75.4155 35.0073H75.3416C72.0913 35.0073 69.4565 32.3719 69.4565 29.1209C69.4565 25.8698 72.0913 23.2344 75.3416 23.2344C78.5918 23.2344 81.2639 25.8698 81.2639 29.1209C81.2639 32.3719 78.6657 35.0073 75.4155 35.0073Z" fill="#54DDAC"/>
<path d="M56.1326 35.0638C52.9106 35.0638 50.2826 32.4688 50.2491 29.2383C50.2148 25.9872 52.8222 23.3244 56.0725 23.2901C59.2877 23.2467 62.0215 25.8638 62.0558 29.1148C62.09 32.3667 59.5192 35.0288 56.269 35.063L56.1951 35.0638C56.1745 35.0638 56.1532 35.0638 56.1326 35.0638Z" fill="#FDC142"/>
<path d="M36.9244 35.1194C33.7023 35.1194 31.0736 32.5244 31.0408 29.2939C31.0073 26.0421 33.6147 23.3792 36.8649 23.3457C36.8855 23.3457 36.9068 23.3457 36.9266 23.3457C40.1495 23.3457 42.814 25.9408 42.8475 29.1712C42.881 32.4223 40.311 35.0851 37.0599 35.1187L36.9861 35.1194C36.9663 35.1194 36.9449 35.1194 36.9244 35.1194Z" fill="#FC3E81"/>
<path d="M131.659 35.1191H111.235C107.985 35.1191 105.35 32.4837 105.35 29.2327C105.35 25.9816 107.985 23.3462 111.235 23.3462H131.659C134.91 23.3462 137.544 25.9816 137.544 29.2327C137.544 32.4837 134.91 35.1191 131.659 35.1191Z" fill="white"/>
<path d="M93.0881 151.716C99.242 151.716 104.841 153.103 109.885 155.878C114.93 158.652 118.965 162.687 121.991 167.984C125.018 173.28 126.531 179.737 126.531 187.354C126.531 195.576 124.867 202.562 121.537 208.312C118.259 214.012 113.29 218.35 106.632 221.326C100.024 224.252 91.6757 225.715 81.5872 225.715C75.1811 225.715 69.3298 225.211 64.0334 224.202C58.7874 223.243 54.0963 221.755 49.96 219.738V195.223C53.844 196.988 58.5099 198.602 63.9577 200.065C69.4559 201.477 74.5001 202.184 79.0904 202.184C82.7726 202.184 85.9 201.654 88.4726 200.595C91.0451 199.535 92.9872 197.972 94.2987 195.904C95.6606 193.835 96.3416 191.288 96.3416 188.262C96.3416 184.075 94.8283 180.796 91.8018 178.425C88.7753 176.004 84.185 174.794 78.0311 174.794C75.2567 174.794 72.5329 175.071 69.8594 175.626C67.186 176.181 64.8404 176.786 62.8228 177.442L51.8516 171.994L56.0131 113.582H119.116V138.475H81.4359L80.074 153.078C81.6881 152.776 83.3275 152.473 84.9921 152.17C86.7071 151.868 89.4058 151.716 93.0881 151.716ZM218.853 169.043C218.853 177.921 218.147 185.866 216.735 192.877C215.322 199.838 213.053 205.765 209.925 210.658C206.848 215.551 202.762 219.284 197.668 221.856C192.573 224.429 186.318 225.715 178.903 225.715C169.672 225.715 162.106 223.47 156.204 218.981C150.302 214.441 145.939 207.959 143.114 199.535C140.34 191.061 138.953 180.897 138.953 169.043C138.953 157.088 140.214 146.874 142.736 138.4C145.309 129.875 149.521 123.343 155.372 118.803C161.223 114.263 169.067 111.993 178.903 111.993C188.134 111.993 195.675 114.263 201.526 118.803C207.428 123.292 211.791 129.799 214.616 138.324C217.441 146.798 218.853 157.038 218.853 169.043ZM168.689 169.043C168.689 176.256 168.941 182.309 169.445 187.202C170 192.095 171.009 195.777 172.472 198.249C173.985 200.67 176.129 201.881 178.903 201.881C181.677 201.881 183.796 200.67 185.259 198.249C186.722 195.777 187.731 192.12 188.285 187.278C188.84 182.385 189.118 176.307 189.118 169.043C189.118 161.729 188.84 155.626 188.285 150.733C187.731 145.84 186.722 142.157 185.259 139.686C183.796 137.164 181.677 135.903 178.903 135.903C176.129 135.903 173.985 137.164 172.472 139.686C171.009 142.157 170 145.84 169.445 150.733C168.941 155.626 168.689 161.729 168.689 169.043ZM309.511 169.043C309.511 177.921 308.805 185.866 307.392 192.877C305.98 199.838 303.71 205.765 300.583 210.658C297.506 215.551 293.42 219.284 288.325 221.856C283.231 224.429 276.976 225.715 269.561 225.715C260.33 225.715 252.763 223.47 246.862 218.981C240.96 214.441 236.597 207.959 233.772 199.535C230.998 191.061 229.611 180.897 229.611 169.043C229.611 157.088 230.872 146.874 233.394 138.4C235.966 129.875 240.178 123.343 246.029 118.803C251.881 114.263 259.724 111.993 269.561 111.993C278.792 111.993 286.333 114.263 292.184 118.803C298.086 123.292 302.449 129.799 305.274 138.324C308.099 146.798 309.511 157.038 309.511 169.043ZM259.346 169.043C259.346 176.256 259.598 182.309 260.103 187.202C260.658 192.095 261.667 195.777 263.129 198.249C264.643 200.67 266.786 201.881 269.561 201.881C272.335 201.881 274.454 200.67 275.916 198.249C277.379 195.777 278.388 192.12 278.943 187.278C279.498 182.385 279.775 176.307 279.775 169.043C279.775 161.729 279.498 155.626 278.943 150.733C278.388 145.84 277.379 142.157 275.916 139.686C274.454 137.164 272.335 135.903 269.561 135.903C266.786 135.903 264.643 137.164 263.129 139.686C261.667 142.157 260.658 145.84 260.103 150.733C259.598 155.626 259.346 161.729 259.346 169.043Z" fill="#991B1B"/>
</svg>
