<svg width="390" height="298" viewBox="0 0 390 298" fill="none" xmlns="http://www.w3.org/2000/svg">
<path d="M376.598 0.148438H13.4024C6.00082 0.148438 0 6.14996 0 13.5542V283.668C0 291.072 6.00082 297.073 13.4024 297.073H376.597C383.999 297.073 389.999 291.071 389.999 283.668V13.5542C390 6.14996 383.999 0.148438 376.598 0.148438Z" fill="#F87171"/>
<path d="M390 283.665V13.5564C390 6.14685 383.997 0.149902 376.597 0.149902H355.017C362.417 0.149902 368.421 6.14685 368.421 13.5564V283.664C368.421 291.073 362.417 297.07 355.017 297.07H376.597C383.997 297.07 390 291.074 390 283.665Z" fill="#991B1B"/>
<path d="M390 58.2017V13.5564C390 6.14685 383.997 0.149902 376.597 0.149902H13.4032C6.00311 0.150664 0 6.14762 0 13.5564V58.2017H390Z" fill="#FFE3E3"/>
<path d="M390 58.2017V13.5564C390 6.14685 383.997 0.149902 376.597 0.149902H355.017C362.417 0.149902 368.421 6.14685 368.421 13.5564V58.2017H390Z" fill="#FFADAD"/>
<path d="M75.4155 35.0073H75.3416C72.0913 35.0073 69.4565 32.3719 69.4565 29.1209C69.4565 25.8698 72.0913 23.2344 75.3416 23.2344C78.5918 23.2344 81.2639 25.8698 81.2639 29.1209C81.2639 32.3719 78.6657 35.0073 75.4155 35.0073Z" fill="#54DDAC"/>
<path d="M56.1326 35.0638C52.9105 35.0638 50.2826 32.4688 50.2491 29.2383C50.2148 25.9872 52.8221 23.3244 56.0724 23.2901C59.2876 23.2467 62.0214 25.8638 62.0557 29.1148C62.09 32.3667 59.5192 35.0288 56.2689 35.063L56.195 35.0638C56.1745 35.0638 56.1531 35.0638 56.1326 35.0638Z" fill="#FDC142"/>
<path d="M36.9243 35.1194C33.7022 35.1194 31.0735 32.5244 31.0408 29.2939C31.0073 26.0421 33.6146 23.3792 36.8649 23.3457C36.8855 23.3457 36.9068 23.3457 36.9266 23.3457C40.1494 23.3457 42.8139 25.9408 42.8474 29.1712C42.8809 32.4223 40.3109 35.0851 37.0599 35.1187L36.986 35.1194C36.9662 35.1194 36.9449 35.1194 36.9243 35.1194Z" fill="#FC3E81"/>
<path d="M131.659 35.1191H111.235C107.985 35.1191 105.35 32.4837 105.35 29.2327C105.35 25.9816 107.985 23.3462 111.235 23.3462H131.659C134.91 23.3462 137.544 25.9816 137.544 29.2327C137.544 32.4837 134.91 35.1191 131.659 35.1191Z" fill="white"/>
<path d="M131.298 202.789H119.116V224.202H89.6076V202.789H45.496V180.847L91.4992 113.582H119.116V180.468H131.298V202.789ZM89.6076 180.468V167.606C89.6076 166.445 89.6329 164.983 89.6833 163.217C89.7337 161.452 89.7842 159.686 89.8346 157.921C89.9355 156.105 90.0112 154.591 90.0616 153.381C90.1625 152.12 90.2382 151.439 90.2886 151.338H89.4563C88.4979 153.608 87.6152 155.499 86.8081 157.013C86.001 158.476 84.9417 160.216 83.6302 162.233L71.3728 180.468H89.6076ZM218.853 169.043C218.853 177.921 218.147 185.866 216.735 192.877C215.322 199.838 213.053 205.765 209.925 210.658C206.848 215.551 202.762 219.284 197.668 221.856C192.573 224.429 186.318 225.715 178.903 225.715C169.672 225.715 162.106 223.47 156.204 218.981C150.303 214.441 145.939 207.959 143.115 199.535C140.34 191.061 138.953 180.897 138.953 169.043C138.953 157.088 140.214 146.874 142.736 138.4C145.309 129.875 149.521 123.343 155.372 118.803C161.223 114.263 169.067 111.993 178.903 111.993C188.134 111.993 195.675 114.263 201.527 118.803C207.428 123.292 211.792 129.799 214.616 138.324C217.441 146.798 218.853 157.038 218.853 169.043ZM168.689 169.043C168.689 176.256 168.941 182.309 169.445 187.202C170 192.095 171.009 195.777 172.472 198.249C173.985 200.67 176.129 201.881 178.903 201.881C181.678 201.881 183.796 200.67 185.259 198.249C186.722 195.777 187.731 192.12 188.285 187.278C188.84 182.385 189.118 176.307 189.118 169.043C189.118 161.729 188.84 155.626 188.285 150.733C187.731 145.84 186.722 142.157 185.259 139.686C183.796 137.164 181.678 135.903 178.903 135.903C176.129 135.903 173.985 137.164 172.472 139.686C171.009 142.157 170 145.84 169.445 150.733C168.941 155.626 168.689 161.729 168.689 169.043ZM312.613 202.789H300.431V224.202H270.923V202.789H226.811V180.847L272.814 113.582H300.431V180.468H312.613V202.789ZM270.923 180.468V167.606C270.923 166.445 270.948 164.983 270.998 163.217C271.049 161.452 271.099 159.686 271.15 157.921C271.251 156.105 271.326 154.591 271.377 153.381C271.478 152.12 271.553 151.439 271.604 151.338H270.771C269.813 153.608 268.93 155.499 268.123 157.013C267.316 158.476 266.257 160.216 264.945 162.233L252.688 180.468H270.923Z" fill="#991B1B"/>
</svg>
