<svg width="21" height="21" viewBox="0 0 21 21" fill="none" xmlns="http://www.w3.org/2000/svg">
<path d="M9.90874 0.31641H11.5769V10.3255H9.90874V0.31641ZM7.40646 0.889849V2.71443C5.91204 3.34 4.69566 4.34786 3.7573 5.73802C2.8537 7.12817 2.4019 8.65735 2.4019 10.3255C2.4019 12.6193 3.21862 14.5829 4.85205 16.2163C6.48548 17.8498 8.44908 18.6665 10.7428 18.6665C13.0366 18.6665 15.0002 17.8498 16.6336 16.2163C18.2671 14.5829 19.0838 12.6193 19.0838 10.3255C19.0838 8.65735 18.6146 7.12817 17.6762 5.73802C16.7726 4.34786 15.5736 3.34 14.0792 2.71443V0.889849C16.0602 1.58493 17.6589 2.80131 18.8752 4.53901C20.1264 6.24195 20.752 8.17079 20.752 10.3255C20.752 13.0711 19.7615 15.4344 17.7805 17.4153C15.8343 19.3615 13.4884 20.3347 10.7428 20.3347C7.99728 20.3347 5.63401 19.3615 3.65304 17.4153C1.70682 15.4344 0.733713 13.0711 0.733713 10.3255C0.733713 8.17079 1.34191 6.24195 2.55829 4.53901C3.80943 2.80131 5.42549 1.58493 7.40646 0.889849Z" fill="#202224"/>
</svg>
