<svg width="63" height="53" viewBox="0 0 63 53" fill="none" xmlns="http://www.w3.org/2000/svg">
<rect y="0.703857" width="62.4538" height="51.5923" rx="8" fill="#60ACFF"/>
<path d="M34.6236 22.5312C34.2305 22.5261 33.8549 22.3676 33.5769 22.0896C33.2989 21.8116 33.1404 21.436 33.1353 21.0429V12.1133H22.7174C21.6648 12.1133 20.6554 12.5314 19.9111 13.2757C19.1668 14.02 18.7487 15.0294 18.7487 16.082V36.9179C18.7487 37.9704 19.1668 38.9799 19.9111 39.7242C20.6554 40.4685 21.6648 40.8866 22.7174 40.8866H39.5845C40.6371 40.8866 41.6465 40.4685 42.3908 39.7242C43.1351 38.9799 43.5532 37.9704 43.5532 36.9179V22.5312H34.6236Z" fill="white"/>
<path d="M36.33 19.0589V12.7089C36.3253 12.6103 36.3513 12.5126 36.4045 12.4294C36.4577 12.3462 36.5355 12.2816 36.627 12.2445C36.7186 12.2075 36.8194 12.1998 36.9155 12.2225C37.0116 12.2453 37.0983 12.2974 37.1635 12.3716L43.5531 18.7017C43.6252 18.7711 43.6746 18.8606 43.6948 18.9586C43.7151 19.0566 43.7053 19.1584 43.6666 19.2506C43.628 19.3429 43.5624 19.4213 43.4784 19.4757C43.3944 19.53 43.2959 19.5576 43.1959 19.555H36.8261C36.6945 19.555 36.5684 19.5027 36.4753 19.4097C36.3823 19.3167 36.33 19.1905 36.33 19.0589Z" fill="white"/>
</svg>
