<svg width="61" height="61" viewBox="0 0 61 61" fill="none" xmlns="http://www.w3.org/2000/svg">
<rect x="0.560547" y="0.326904" width="59.7781" height="59.7781" rx="9.96302" fill="#DDEDFF"/>
<path fill-rule="evenodd" clip-rule="evenodd" d="M42.4054 26.2021C42.4054 25.6535 42.1875 25.1275 41.7996 24.7396L32.9374 15.8773C32.5495 15.4894 32.0234 15.2715 31.4748 15.2715H20.0456C19.1889 15.2715 18.4944 15.966 18.4944 16.8227V43.6093C18.4944 44.466 19.1889 45.1606 20.0456 45.1606H40.8542C41.7109 45.1606 42.4054 44.466 42.4054 43.6093V26.2021ZM31.1796 18.0513C31.1144 17.9861 31.003 18.0323 31.003 18.1244V26.3596C31.003 26.588 31.1882 26.7732 31.4167 26.7732H39.6518C39.744 26.7732 39.7901 26.6618 39.7249 26.5967L31.1796 18.0513Z" fill="#007AFF"/>
</svg>
