<svg width="16" height="16" viewBox="0 0 16 16" fill="none" xmlns="http://www.w3.org/2000/svg">
<path d="M9.77007 6.24189C9.59652 6.23962 9.43071 6.16967 9.30798 6.04694C9.18525 5.9242 9.11529 5.7584 9.11302 5.58484V1.64258H4.51371C4.04902 1.64258 3.60337 1.82718 3.27478 2.15576C2.94619 2.48435 2.7616 2.93001 2.7616 3.3947L2.7616 12.5933C2.7616 13.058 2.94619 13.5037 3.27478 13.8322C3.60337 14.1608 4.04902 14.3454 4.51371 14.3454H11.9602C12.4249 14.3454 12.8706 14.1608 13.1992 13.8322C13.5277 13.5037 13.7123 13.058 13.7123 12.5933V6.24189H9.77007Z" fill="white"/>
<path d="M10.5234 4.70884V1.90545C10.5213 1.8619 10.5328 1.81877 10.5563 1.78203C10.5798 1.7453 10.6141 1.71678 10.6546 1.70042C10.695 1.68406 10.7395 1.68067 10.7819 1.69072C10.8243 1.70077 10.8626 1.72377 10.8914 1.75652L13.7123 4.55115C13.7441 4.58178 13.7659 4.62131 13.7749 4.66456C13.7838 4.70781 13.7795 4.75275 13.7624 4.79349C13.7454 4.83422 13.7164 4.86885 13.6793 4.89283C13.6422 4.91681 13.5987 4.92902 13.5546 4.92785H10.7425C10.6844 4.92785 10.6287 4.90478 10.5876 4.86371C10.5465 4.82263 10.5234 4.76693 10.5234 4.70884Z" fill="white"/>
</svg>
