<svg width="16" height="15" viewBox="0 0 16 15" fill="none" xmlns="http://www.w3.org/2000/svg">
<path d="M15.5112 5.88284C14.9096 4.89768 14.1507 4.0177 13.2647 3.2778L15.1307 1.41183C15.2521 1.28614 15.3193 1.1178 15.3177 0.943065C15.3162 0.768332 15.2461 0.601186 15.1226 0.477626C14.999 0.354067 14.8319 0.28398 14.6571 0.282462C14.4824 0.280943 14.3141 0.348115 14.1884 0.469508L12.1591 2.50142C10.9012 1.75425 9.46307 1.36482 8 1.37517C3.8742 1.37517 1.52307 4.19946 0.488783 5.88284C0.169253 6.39965 0 6.99525 0 7.60287C0 8.21048 0.169253 8.80608 0.488783 9.32289C1.0904 10.308 1.84927 11.188 2.73528 11.9279L0.869308 13.7939C0.805659 13.8554 0.754889 13.9289 0.719963 14.0102C0.685037 14.0915 0.666653 14.179 0.665884 14.2675C0.665115 14.3559 0.681976 14.4437 0.715484 14.5256C0.748993 14.6075 0.798476 14.6819 0.861048 14.7445C0.92362 14.8071 0.998027 14.8565 1.07993 14.89C1.16183 14.9236 1.24958 14.9404 1.33807 14.9396C1.42656 14.9389 1.514 14.9205 1.59531 14.8856C1.67661 14.8506 1.75015 14.7999 1.81163 14.7362L3.84554 12.7023C5.10192 13.4494 6.53832 13.8395 8 13.8306C12.1258 13.8306 14.4769 11.0063 15.5112 9.32289C15.8307 8.80608 16 8.21048 16 7.60287C16 6.99525 15.8307 6.39965 15.5112 5.88284ZM1.62436 8.62515C1.43452 8.31796 1.33397 7.96398 1.33397 7.60287C1.33397 7.24175 1.43452 6.88777 1.62436 6.58058C2.51337 5.13711 4.52262 2.70801 8 2.70801C9.10644 2.70181 10.1973 2.96847 11.1762 3.48439L9.83465 4.82589C9.19485 4.40112 8.42778 4.21079 7.66361 4.28719C6.89945 4.3636 6.18525 4.70203 5.64221 5.24507C5.09917 5.78812 4.76073 6.50231 4.68433 7.26648C4.60792 8.03064 4.79825 8.79771 5.22303 9.43752L3.6836 10.9769C2.8673 10.317 2.17072 9.52145 1.62436 8.62515ZM9.99926 7.60287C9.99926 8.1331 9.78862 8.64162 9.41369 9.01655C9.03876 9.39149 8.53024 9.60212 8 9.60212C7.70312 9.60098 7.41035 9.53262 7.14365 9.4022L9.79933 6.74652C9.92976 7.01322 9.99811 7.30598 9.99926 7.60287ZM6.00074 7.60287C6.00074 7.07263 6.21138 6.56411 6.58631 6.18917C6.96124 5.81424 7.46976 5.60361 8 5.60361C8.29688 5.60476 8.58965 5.67311 8.85635 5.80353L6.20067 8.45921C6.07024 8.19251 6.00189 7.89975 6.00074 7.60287ZM14.3756 8.62515C13.4866 10.0686 11.4774 12.4977 8 12.4977C6.89356 12.5039 5.80266 12.2373 4.82384 11.7213L6.16535 10.3798C6.80515 10.8046 7.57222 10.9949 8.33639 10.9185C9.10055 10.8421 9.81475 10.5037 10.3578 9.96066C10.9008 9.41761 11.2393 8.70342 11.3157 7.93925C11.3921 7.17509 11.2017 6.40802 10.777 5.76821L12.3164 4.22878C13.1327 4.88872 13.8293 5.68427 14.3756 6.58058C14.5655 6.88777 14.666 7.24175 14.666 7.60287C14.666 7.96398 14.5655 8.31796 14.3756 8.62515Z" fill="#4B5563"/>
</svg>
