<svg width="172" height="46" viewBox="0 0 172 46" fill="none" xmlns="http://www.w3.org/2000/svg">
<path d="M33.6592 40.0062C33.3871 39.3058 33.2574 38.5581 33.2776 37.8069C33.2361 35.7249 32.6797 33.6857 31.658 31.8712C30.6388 30.0598 29.1855 28.53 27.4286 27.4194C26.7781 27.0705 26.2051 26.5932 25.7444 26.0165C25.2836 25.4397 24.9447 24.7755 24.7481 24.064C24.5514 23.3525 24.5012 22.6085 24.6004 21.877C24.6995 21.1455 24.9461 20.4417 25.3251 19.8083C25.8314 18.9621 26.5601 18.2684 27.4286 17.8069C27.9265 17.4614 28.4048 17.0894 28.8608 16.6908L30.0034 15.5719C32.0972 13.3708 33.2714 10.4531 33.286 7.41525C33.2643 6.66387 33.3934 5.91578 33.6656 5.21509C33.9377 4.5144 34.3474 3.87531 34.8706 3.33553C35.3914 2.79635 36.0155 2.36763 36.7056 2.07495C37.3957 1.78227 38.1377 1.63163 38.8874 1.63203C39.6366 1.63309 40.3779 1.78439 41.0676 2.07699C41.7573 2.36959 42.3813 2.79754 42.9027 3.33553C43.425 3.87626 43.8341 4.51571 44.1062 5.21647C44.3782 5.91722 44.5078 6.66521 44.4874 7.41665C44.4751 8.39209 44.2065 9.34714 43.7083 10.1859C43.2119 11.0232 42.5032 11.7146 41.6538 12.1901C38.2146 14.3663 35.8216 18.5271 35.8216 22.6194C35.8301 25.6309 36.9819 28.5268 39.044 30.7215L41.6454 33.032C42.4944 33.5062 43.2034 34.1971 43.7013 35.0362C44.2006 35.874 44.4678 36.8306 44.4804 37.8069C44.5018 38.5582 44.3726 39.3062 44.1004 40.0069C43.8283 40.7075 43.4187 41.3467 42.8958 41.8866C42.3749 42.4256 41.7508 42.8543 41.0606 43.1469C40.3705 43.4396 39.6286 43.5903 38.879 43.5901C38.1295 43.5892 37.3879 43.438 36.6979 43.1454C36.008 42.8528 35.3838 42.4247 34.8622 41.8866C34.3402 41.346 33.9312 40.7067 33.6592 40.0062Z" fill="#1A1A1A"/>
<path d="M26.0622 10.5271C26.679 9.60126 27.0076 8.51175 27.0076 7.39847C27.0067 5.90718 26.4159 4.47679 25.3643 3.41945C24.4499 2.4995 23.2438 1.92644 21.9531 1.79859C20.6623 1.67074 19.3673 1.99606 18.2902 2.71875C17.3675 3.33819 16.6492 4.21715 16.2258 5.24462C15.8024 6.27326 15.6919 7.40395 15.9081 8.49511C16.1243 9.58627 16.6576 10.5894 17.4412 11.3789C18.2225 12.1662 19.2206 12.7028 20.3082 12.9203C21.3958 13.1378 22.5236 13.0262 23.5475 12.5999C24.5724 12.1731 25.4476 11.4517 26.0622 10.5271Z" fill="#1A1A1A"/>
<path d="M24.5167 33.1257C23.5951 32.5076 22.5111 32.1775 21.4034 32.1775L21.4034 32.1747C20.6671 32.1756 19.9382 32.3218 19.2585 32.605C18.5788 32.8882 17.9617 33.3028 17.4426 33.825C16.5252 34.748 15.9546 35.9593 15.8272 37.2543C15.6997 38.5494 16.0234 39.8487 16.7433 40.9327C17.3579 41.8586 18.2336 42.581 19.2594 43.0083C20.2833 43.4346 21.4111 43.5462 22.4987 43.3287C23.5863 43.1112 24.5844 42.5746 25.3657 41.7873C26.1496 40.9977 26.6831 39.9943 26.8993 38.9028C27.1155 37.8114 27.0048 36.6804 26.5811 35.6516C26.1576 34.6242 25.4393 33.7452 24.5167 33.1257Z" fill="#1A1A1A"/>
<path d="M8.00903 19.4754C7.39387 20.4009 7.06522 21.4886 7.06498 22.6015C7.06592 24.0931 7.65665 25.5239 8.70833 26.5817C9.22759 27.1037 9.84471 27.5182 10.5244 27.8014C11.204 28.0846 11.9329 28.2309 12.6692 28.232C13.7781 28.232 14.8619 27.9019 15.7825 27.2838C16.7051 26.6643 17.4234 25.7854 17.8468 24.7579C18.2705 23.7291 18.3812 22.5981 18.165 21.5067C17.9488 20.4152 17.4153 19.4118 16.6314 18.6222C15.8501 17.8347 14.8517 17.2978 13.7638 17.0804C12.6759 16.8629 11.5478 16.9746 10.5237 17.4013C9.49863 17.8284 8.62342 18.5503 8.00903 19.4754Z" fill="#1A1A1A"/>
<path d="M50.7279 17.9215C49.8062 17.3034 48.7237 16.9733 47.6146 16.9733C46.8784 16.9748 46.1498 17.1215 45.4704 17.405C44.791 17.6884 44.1742 18.103 43.6551 18.625C42.7382 19.5476 42.1678 20.7585 42.0404 22.053C41.913 23.3475 42.2364 24.6463 42.9558 25.7299C43.5703 26.655 44.4455 27.3768 45.4705 27.8041C46.4948 28.2283 47.622 28.3388 48.7092 28.1214C49.7964 27.904 50.7944 27.3686 51.5768 26.5831C52.3604 25.7936 52.8938 24.7905 53.1099 23.6993C53.3261 22.6081 53.2156 21.4774 52.7922 20.4488C52.369 19.4209 51.6506 18.5414 50.7279 17.9215Z" fill="#1A1A1A"/>
<path d="M87.9556 16.007C87.8634 14.8545 87.4312 13.9555 86.659 13.3101C85.8983 12.6647 84.74 12.3419 83.1841 12.3419C82.1929 12.3419 81.3803 12.463 80.7464 12.705C80.1241 12.9355 79.6631 13.2525 79.3634 13.6558C79.0637 14.0592 78.9081 14.5202 78.8966 15.0389C78.8736 15.4653 78.9485 15.8514 79.1214 16.1972C79.3058 16.5314 79.5939 16.8368 79.9858 17.1135C80.3776 17.3785 80.879 17.6206 81.4898 17.8396C82.1007 18.0585 82.8268 18.2545 83.6681 18.4274L86.5725 19.0497C88.5318 19.4646 90.2088 20.0121 91.6033 20.6921C92.9979 21.3721 94.1389 22.1731 95.0264 23.0951C95.9138 24.0056 96.565 25.0314 96.9799 26.1724C97.4064 27.3134 97.6254 28.5582 97.6369 29.9066C97.6254 32.2348 97.0433 34.2056 95.8908 35.8192C94.7383 37.4327 93.0901 38.6602 90.9464 39.5015C88.8142 40.3429 86.2498 40.7635 83.2532 40.7635C80.1759 40.7635 77.4905 40.3083 75.197 39.3978C72.9149 38.4873 71.14 37.0869 69.8722 35.1968C68.616 33.2951 67.9821 30.8632 67.9706 27.9012H77.0987C77.1563 28.9846 77.4271 29.8951 77.9112 30.6327C78.3953 31.3704 79.0753 31.9293 79.9512 32.3097C80.8386 32.69 81.8932 32.8802 83.1149 32.8802C84.1407 32.8802 84.9993 32.7534 85.6908 32.4998C86.3823 32.2463 86.9068 31.8948 87.264 31.4453C87.6213 30.9958 87.8057 30.4829 87.8173 29.9066C87.8057 29.3649 87.6271 28.8924 87.2813 28.489C86.9471 28.0741 86.3939 27.7053 85.6217 27.3826C84.8495 27.0483 83.8064 26.7372 82.4925 26.449L78.9658 25.6883C75.8309 25.0083 73.3587 23.8731 71.5492 22.2826C69.7512 20.6806 68.858 18.4965 68.8695 15.7304C68.858 13.483 69.4573 11.5179 70.6675 9.83518C71.8892 8.14095 73.5776 6.82129 75.7329 5.87621C77.8997 4.93113 80.3834 4.45859 83.1841 4.45859C86.0424 4.45859 88.5145 4.93689 90.6006 5.8935C92.6867 6.8501 94.2945 8.19857 95.424 9.93891C96.565 11.6677 97.1413 13.6904 97.1528 16.007H87.9556Z" fill="#1A1A1A"/>
<path d="M110.975 4.94265L118.236 29.9066H118.512L125.773 4.94265H136.63L124.943 40.3486H111.804L100.118 4.94265H110.975Z" fill="#1A1A1A"/>
<path d="M140.04 40.3486V4.94265H164.935V12.6877H149.652V18.7731H163.414V26.5182H149.652V40.3486H140.04Z" fill="#1A1A1A"/>
</svg>
