<svg width="47" height="43" viewBox="0 0 47 43" fill="none" xmlns="http://www.w3.org/2000/svg">
<path d="M26.6592 39.0062C26.3871 38.3058 26.2574 37.5581 26.2776 36.8069C26.2361 34.7249 25.6797 32.6857 24.658 30.8712C23.6388 29.0598 22.1855 27.53 20.4286 26.4194C19.7781 26.0705 19.2051 25.5932 18.7444 25.0165C18.2836 24.4397 17.9447 23.7755 17.7481 23.064C17.5514 22.3525 17.5012 21.6085 17.6004 20.877C17.6995 20.1455 17.9461 19.4417 18.3251 18.8083C18.8314 17.9621 19.5601 17.2684 20.4286 16.8069C20.9265 16.4614 21.4048 16.0894 21.8608 15.6908L23.0034 14.5719C25.0972 12.3708 26.2714 9.45313 26.286 6.41525C26.2643 5.66387 26.3934 4.91578 26.6656 4.21509C26.9377 3.5144 27.3474 2.87531 27.8706 2.33553C28.3914 1.79635 29.0155 1.36763 29.7056 1.07495C30.3957 0.782267 31.1377 0.631632 31.8874 0.632034C32.6366 0.63309 33.3779 0.784394 34.0676 1.07699C34.7573 1.36959 35.3813 1.79754 35.9027 2.33553C36.425 2.87626 36.8341 3.51571 37.1062 4.21647C37.3782 4.91722 37.5078 5.66521 37.4874 6.41665C37.4751 7.39209 37.2065 8.34714 36.7083 9.18588C36.2119 10.0232 35.5032 10.7146 34.6538 11.1901C31.2146 13.3663 28.8216 17.5271 28.8216 21.6194C28.8301 24.6309 29.9819 27.5268 32.044 29.7215L34.6454 32.032C35.4944 32.5062 36.2034 33.1971 36.7013 34.0362C37.2006 34.874 37.4678 35.8306 37.4804 36.8069C37.5018 37.5582 37.3726 38.3062 37.1004 39.0069C36.8283 39.7075 36.4187 40.3467 35.8958 40.8866C35.3749 41.4256 34.7508 41.8543 34.0606 42.1469C33.3705 42.4396 32.6286 42.5903 31.879 42.5901C31.1295 42.5892 30.3879 42.438 29.6979 42.1454C29.008 41.8528 28.3838 41.4247 27.8622 40.8866C27.3402 40.346 26.9312 39.7067 26.6592 39.0062Z" fill="#1A1A1A"/>
<path d="M19.0622 9.52714C19.679 8.60126 20.0076 7.51175 20.0076 6.39847C20.0067 4.90718 19.4159 3.47679 18.3643 2.41945C17.4499 1.4995 16.2438 0.926442 14.9531 0.79859C13.6623 0.670738 12.3673 0.996061 11.2902 1.71875C10.3675 2.33819 9.64919 3.21715 9.22582 4.24462C8.80241 5.27326 8.69189 6.40395 8.90808 7.49511C9.12427 8.58627 9.65757 9.5894 10.4412 10.3789C11.2225 11.1662 12.2206 11.7028 13.3082 11.9203C14.3958 12.1378 15.5236 12.0262 16.5475 11.5999C17.5724 11.1731 18.4476 10.4517 19.0622 9.52714Z" fill="#1A1A1A"/>
<path d="M17.5167 32.1257C16.5951 31.5076 15.5111 31.1775 14.4034 31.1775L14.4034 31.1747C13.6671 31.1756 12.9382 31.3218 12.2585 31.605C11.5788 31.8882 10.9617 32.3028 10.4426 32.825C9.5252 33.748 8.95458 34.9593 8.82716 36.2543C8.69975 37.5494 9.02336 38.8487 9.7433 39.9327C10.3579 40.8586 11.2336 41.581 12.2594 42.0083C13.2833 42.4346 14.4111 42.5462 15.4987 42.3287C16.5863 42.1112 17.5844 41.5746 18.3657 40.7873C19.1496 39.9977 19.6831 38.9943 19.8993 37.9028C20.1155 36.8114 20.0048 35.6804 19.5811 34.6516C19.1576 33.6242 18.4393 32.7452 17.5167 32.1257Z" fill="#1A1A1A"/>
<path d="M1.00903 18.4754C0.39387 19.4009 0.0652181 20.4886 0.0649815 21.6015C0.0659198 23.0931 0.656648 24.5239 1.70833 25.5817C2.22759 26.1037 2.84471 26.5182 3.52437 26.8014C4.20403 27.0846 4.93288 27.2309 5.66918 27.232C6.77807 27.232 7.86186 26.9019 8.78246 26.2838C9.70508 25.6643 10.4234 24.7854 10.8468 23.7579C11.2705 22.7291 11.3812 21.5981 11.165 20.5067C10.9488 19.4152 10.4153 18.4118 9.63141 17.6222C8.85005 16.8347 7.85166 16.2978 6.76376 16.0804C5.67586 15.8629 4.54782 15.9746 3.52372 16.4013C2.49863 16.8284 1.62342 17.5503 1.00903 18.4754Z" fill="#1A1A1A"/>
<path d="M43.7279 16.9215C42.8062 16.3034 41.7237 15.9733 40.6146 15.9733C39.8784 15.9748 39.1498 16.1215 38.4704 16.405C37.791 16.6884 37.1742 17.103 36.6551 17.625C35.7382 18.5476 35.1678 19.7585 35.0404 21.053C34.913 22.3475 35.2364 23.6463 35.9558 24.7299C36.5703 25.655 37.4455 26.3768 38.4705 26.8041C39.4948 27.2283 40.622 27.3388 41.7092 27.1214C42.7964 26.904 43.7944 26.3686 44.5768 25.5831C45.3604 24.7936 45.8938 23.7905 46.1099 22.6993C46.3261 21.6081 46.2156 20.4774 45.7922 19.4488C45.369 18.4209 44.6506 17.5414 43.7279 16.9215Z" fill="#1A1A1A"/>
</svg>
