<svg width="18" height="16" viewBox="0 0 18 16" fill="none" xmlns="http://www.w3.org/2000/svg">
<path d="M5.04688 0.666016L6.07812 1.69727L3.32812 4.44727L2.8125 4.87695L2.29688 4.44727L0.921875 3.07227L1.95312 2.04102L2.8125 2.94336L5.04688 0.666016ZM8.3125 1.86914H17.25V3.24414H8.3125V1.86914ZM5.04688 6.16602L6.07812 7.19727L3.32812 9.94727L2.8125 10.377L2.29688 9.94727L0.921875 8.57227L1.95312 7.54102L2.8125 8.44336L5.04688 6.16602ZM8.3125 7.36914H17.25V8.74414H8.3125V7.36914ZM5.04688 11.666L6.07812 12.6973L3.32812 15.4473L2.8125 15.877L2.29688 15.4473L0.921875 14.0723L1.95312 13.041L2.8125 13.9434L5.04688 11.666ZM8.3125 12.8691H17.25V14.2441H8.3125V12.8691Z" fill="#1A1A1A"/>
</svg>
